# xmcd CD database file
#
# Track frame offsets:
#	150
#	36678
#	57693
#	81339
#	98741
#	134734
#	187227
#	216635
#	244423
#	266913
#	290441
#
# Disc length: 4193 seconds
#
# Revision: 0
# Processed by: cddbd v1.5.2PL0 Copyright (c) Steve Scherf et al.
# Submitted via: CDex 1.70beta2
#
DISCID=c6105f0b
DTITLE=Various Artist - Eleven's The Point
DYEAR=2011
DGENRE=Jazz
TTITLE0=Marc Cary - Mr. Lucky
TTITLE1=Al Jarreau - Feels Like Heaven
TTITLE2=Sonny Rollins - Paul's Pal
TTITLE3=Al Jarreau - Cold Duck 
TTITLE4=Sonny Rollins - The Everywhere Calypso
TTITLE5=Thelonious Monk - We See
TTITLE6=Freddie Hubbard, feat. Tina Brooks - Gypsy Blue
TTITLE7=Ernestine Anderson - Down Home Blues
TTITLE8=John Coltrane - Theme For Ernie
TTITLE9=Mary Stallings - Everything I Love
TTITLE10=Lucky Thompson with The Tete Montoliu Trio - What's New 
EXTD=YEAR: 2011
EXTT0=
EXTT1=
EXTT2=
EXTT3=
EXTT4=
EXTT5=
EXTT6=
EXTT7=
EXTT8=
EXTT9=
EXTT10=
PLAYORDER=
